<?xml version="1.0" standalone="no"?>
<!DOCTYPE svg PUBLIC "-//W3C//DTD SVG 20010904//EN"
 "http://www.w3.org/TR/2001/REC-SVG-20010904/DTD/svg10.dtd">
<svg version="1.0" xmlns="http://www.w3.org/2000/svg"
 width="1246.000000pt" height="1056.000000pt" viewBox="0 0 1246.000000 1056.000000"
 preserveAspectRatio="xMidYMid meet">

<g transform="translate(0.000000,1056.000000) scale(0.100000,-0.100000)"
fill="#000000" stroke="none">
<path d="M973 7945 c5 -155 24 -236 81 -359 45 -98 101 -163 207 -246 214
-165 477 -277 777 -331 63 -11 116 -19 118 -17 2 3 -79 315 -102 391 -5 16
-13 18 -63 12 -72 -8 -233 9 -331 36 -110 30 -263 109 -357 184 -132 106 -241
251 -310 412 l-24 58 4 -140z"/>
<path d="M11468 8033 c-26 -71 -105 -203 -171 -282 -117 -142 -319 -272 -497
-320 -98 -27 -259 -44 -331 -36 -50 6 -58 4 -63 -12 -23 -76 -104 -388 -102
-391 7 -7 232 38 321 63 283 82 587 257 707 408 91 115 147 281 155 462 7 150
3 171 -19 108z"/>
<path d="M2235 7293 c16 -132 84 -284 164 -368 74 -78 219 -158 379 -209 84
-26 284 -60 325 -54 l25 3 -38 85 c-28 64 -43 87 -61 92 -315 97 -489 198
-687 396 l-114 113 7 -58z"/>
<path d="M10115 7236 c-192 -195 -368 -296 -684 -394 -18 -5 -33 -28 -61 -92
l-38 -85 25 -3 c41 -6 241 28 325 54 160 51 305 131 379 209 80 84 148 236
164 368 3 31 5 57 3 56 -2 0 -52 -51 -113 -113z"/>
<path d="M1065 7204 c63 -142 210 -323 344 -425 182 -136 430 -219 656 -219
75 0 202 14 211 23 4 3 -72 236 -79 243 -2 2 -76 22 -164 44 -295 74 -632 201
-880 330 l-112 59 24 -55z"/>
<path d="M11315 7205 c-229 -124 -592 -261 -888 -335 -88 -22 -162 -42 -164
-44 -7 -7 -83 -240 -79 -243 9 -9 136 -23 211 -23 226 0 474 83 656 219 134
102 281 283 344 426 14 30 24 55 22 54 -1 0 -47 -25 -102 -54z"/>
<path d="M4665 7184 c-154 -22 -235 -54 -290 -116 -19 -20 -38 -50 -41 -65
-16 -61 63 -142 178 -183 53 -19 90 -23 229 -27 251 -8 513 31 909 134 96 25
185 48 198 50 12 3 22 9 22 12 0 9 -323 90 -498 126 -260 52 -594 85 -707 69z"/>
<path d="M7345 7174 c-231 -23 -913 -149 -938 -173 -15 -14 468 -121 737 -163
109 -17 188 -22 346 -22 186 -1 212 1 277 22 73 23 141 66 176 114 29 39 16
91 -36 144 -65 64 -115 76 -337 79 -102 2 -203 1 -225 -1z"/>
<path d="M6040 7015 l0 -75 125 0 125 0 0 29 c0 15 3 49 6 75 l7 46 -132 0
-131 0 0 -75z"/>
<path d="M2360 6788 c0 -55 123 -203 237 -284 102 -74 220 -120 368 -144 39
-7 167 -35 285 -62 218 -51 300 -62 307 -42 14 40 -258 210 -432 269 -27 9
-118 34 -200 55 -183 46 -256 74 -404 157 -140 78 -161 85 -161 51z"/>
<path d="M10035 6789 c-22 -12 -78 -42 -125 -69 -118 -65 -200 -96 -375 -140
-82 -21 -172 -46 -200 -55 -174 -59 -446 -229 -432 -269 7 -20 89 -9 307 42
118 27 247 55 285 62 148 24 266 70 368 144 112 80 237 229 237 283 0 28 -14
29 -65 2z"/>
<path d="M3250 6755 c-28 -34 18 -153 82 -210 48 -44 90 -65 210 -104 101 -34
165 -72 195 -117 42 -64 54 -232 28 -389 -20 -123 -19 -210 4 -261 36 -80 110
-144 165 -144 54 0 60 53 41 373 -25 432 -60 515 -261 626 -43 24 -141 80
-217 124 -144 83 -210 117 -225 117 -5 0 -15 -7 -22 -15z"/>
<path d="M9138 6751 c-21 -11 -99 -55 -175 -99 -76 -43 -174 -99 -217 -123
-201 -111 -236 -194 -261 -626 -19 -320 -13 -373 41 -373 55 0 129 64 165 144
23 51 24 138 4 261 -26 157 -14 325 28 389 30 45 94 83 195 117 120 39 162 60
210 104 64 57 110 176 82 210 -16 19 -26 18 -72 -4z"/>
<path d="M6066 6638 c37 -142 -1 -303 -96 -411 -35 -39 -49 -47 -98 -57 -96
-20 -262 -79 -366 -132 -408 -204 -687 -534 -810 -959 -25 -89 -27 -88 -45 15
-17 93 -13 179 15 346 33 196 34 320 5 411 -59 183 -240 346 -499 448 l-48 19
33 -116 c55 -190 64 -274 67 -597 2 -233 6 -306 20 -370 26 -120 81 -277 128
-368 52 -99 150 -207 218 -239 46 -22 60 -40 60 -80 0 -14 -8 -18 -37 -18 -72
-1 -173 -66 -173 -112 0 -11 11 -23 28 -29 35 -14 130 -6 170 15 31 16 32 16
32 -3 0 -27 45 -179 80 -269 82 -214 258 -450 449 -604 642 -518 1565 -484
2161 78 209 197 370 477 430 747 7 31 14 57 14 57 1 0 19 -7 41 -15 76 -27
175 -14 175 23 0 45 -100 111 -167 112 -25 0 -33 4 -33 18 0 40 14 59 56 81
66 35 163 144 212 238 47 91 102 248 128 368 14 64 18 137 20 370 3 323 12
407 67 597 l33 116 -48 -19 c-259 -102 -440 -265 -499 -448 -29 -91 -28 -215
5 -411 28 -169 32 -260 13 -360 l-12 -65 -34 105 c-182 577 -671 978 -1308
1075 -53 8 -102 60 -145 151 -43 91 -55 180 -36 272 l14 72 -116 0 -117 0 13
-52z m372 -744 c624 -92 1092 -610 1092 -1209 0 -599 -468 -1117 -1092 -1209
-423 -63 -845 72 -1142 368 -474 471 -474 1211 0 1682 297 295 719 431 1142
368z"/>
<path d="M6102 5479 c-262 -46 -484 -212 -597 -444 -65 -133 -79 -197 -79
-350 0 -153 14 -217 79 -350 99 -206 288 -361 520 -427 115 -32 315 -32 430 0
231 66 420 220 521 426 24 50 42 91 41 93 -2 1 -23 -7 -47 -19 -131 -65 -294
-5 -368 136 -23 44 -27 63 -26 136 0 72 4 93 27 136 72 141 236 201 367 136
24 -12 46 -20 48 -17 3 2 -16 46 -41 97 -101 208 -290 364 -517 428 -86 24
-274 35 -358 19z"/>
<path d="M1371 6638 c41 -58 183 -192 257 -241 102 -68 245 -134 359 -164 84
-22 121 -26 253 -27 85 0 172 3 193 7 l37 8 -75 99 c-66 88 -79 100 -113 105
-250 43 -528 113 -760 190 -89 30 -165 55 -168 55 -3 0 5 -15 17 -32z"/>
<path d="M10916 6610 c-180 -62 -469 -136 -655 -170 -63 -11 -116 -20 -117
-20 -2 0 -37 -45 -79 -100 l-75 -99 37 -8 c21 -4 108 -7 193 -7 132 1 169 5
253 27 114 30 257 96 359 164 108 73 308 276 266 272 -7 -1 -89 -28 -182 -59z"/>
<path d="M2520 6354 c0 -49 138 -187 235 -234 107 -52 161 -61 420 -70 132 -5
270 -13 307 -20 37 -6 80 -10 95 -8 23 3 2 17 -122 79 -197 98 -232 108 -405
120 -189 14 -249 28 -390 94 -125 59 -140 63 -140 39z"/>
<path d="M9800 6315 c-136 -64 -207 -81 -395 -94 -168 -12 -204 -23 -400 -120
-124 -62 -145 -76 -122 -79 15 -2 58 2 95 8 37 7 175 15 307 20 259 9 313 18
420 70 97 47 235 185 235 234 0 25 -16 20 -140 -39z"/>
<path d="M1629 6191 c6 -10 44 -55 85 -98 172 -182 392 -287 636 -300 89 -5
252 10 277 25 7 5 -8 50 -42 127 l-52 120 -159 1 c-239 3 -441 37 -656 113
-102 36 -102 36 -89 12z"/>
<path d="M10735 6178 c-199 -73 -411 -109 -649 -112 l-159 -1 -52 -120 c-34
-77 -49 -122 -42 -127 25 -15 188 -30 277 -25 244 13 464 118 636 300 81 86
103 118 82 116 -7 -1 -49 -15 -93 -31z"/>
<path d="M2742 5979 c40 -72 115 -146 181 -179 54 -26 80 -32 197 -41 148 -12
427 -6 443 10 27 27 -283 120 -821 246 l-24 6 24 -42z"/>
<path d="M9415 5941 c-402 -102 -541 -149 -518 -172 16 -16 298 -22 443 -10
164 13 230 40 307 125 48 53 101 136 86 136 -4 -1 -147 -36 -318 -79z"/>
<path d="M2037 5729 c61 -95 151 -174 260 -228 160 -80 364 -82 531 -6 l54 25
-55 77 -55 78 -175 12 c-192 12 -391 36 -499 58 -38 8 -72 15 -75 15 -3 0 4
-14 14 -31z"/>
<path d="M10355 5745 c-95 -21 -303 -46 -492 -58 l-175 -12 -55 -78 -55 -77
54 -25 c167 -76 371 -74 531 6 109 54 199 133 260 228 22 35 21 35 -68 16z"/>
<path d="M2906 5682 c-23 -22 26 -109 88 -156 90 -68 147 -77 341 -51 61 8
135 15 165 15 106 1 124 18 68 66 -73 61 -106 69 -303 70 -161 1 -186 3 -240
23 -86 33 -113 40 -119 33z"/>
<path d="M9460 5657 c-82 -29 -90 -30 -265 -31 -197 -1 -230 -9 -303 -70 -56
-48 -38 -65 68 -66 30 0 105 -7 165 -15 194 -26 251 -17 341 51 63 49 114 141
86 158 -4 2 -45 -10 -92 -27z"/>
<path d="M3770 5443 c0 -5 9 -45 21 -89 42 -163 146 -329 267 -430 60 -49 206
-134 231 -134 6 0 -12 28 -40 63 -83 102 -167 234 -231 365 l-61 123 -71 41
c-39 23 -81 48 -93 56 -13 8 -23 10 -23 5z"/>
<path d="M8594 5394 l-91 -54 -61 -122 c-64 -131 -148 -263 -231 -365 -28 -35
-46 -63 -40 -63 25 0 171 85 231 134 123 102 225 268 268 434 12 46 20 85 18
87 -1 2 -44 -21 -94 -51z"/>
<path d="M3365 5384 c-27 -7 -76 -14 -107 -14 -31 0 -59 -4 -63 -9 -9 -15 25
-42 94 -75 84 -39 200 -47 297 -21 35 9 66 21 69 25 7 12 -63 70 -109 91 -48
22 -111 23 -181 3z"/>
<path d="M8914 5381 c-46 -21 -116 -79 -109 -91 3 -4 34 -16 69 -25 97 -26
213 -18 297 21 69 33 103 60 94 75 -4 5 -32 9 -63 9 -31 0 -82 7 -112 15 -73
20 -126 18 -176 -4z"/>
<path d="M2569 5322 c37 -53 112 -114 177 -144 106 -49 247 -50 361 -3 l34 15
-61 80 -61 80 -235 0 -235 0 20 -28z"/>
<path d="M9380 5270 l-61 -80 34 -15 c114 -47 255 -46 361 3 65 30 140 91 177
144 l20 28 -235 0 -235 0 -61 -80z"/>
<path d="M3395 5138 c20 -67 114 -138 184 -138 50 0 118 36 146 78 14 20 23
37 22 39 -2 1 -64 9 -138 17 -73 9 -154 18 -177 22 -42 5 -44 5 -37 -18z"/>
<path d="M8882 5140 c-84 -10 -157 -20 -162 -22 -6 -2 1 -19 15 -39 28 -43 96
-79 146 -79 69 0 164 71 184 138 8 26 23 26 -183 2z"/>
<path d="M3070 5094 c-80 -7 -151 -13 -159 -13 -30 -2 45 -63 124 -102 57 -28
103 -43 160 -51 87 -12 173 -4 181 17 3 7 -20 47 -51 89 -47 64 -60 76 -83 75
-15 -1 -92 -7 -172 -15z"/>
<path d="M9135 5034 c-31 -42 -54 -82 -51 -89 16 -43 219 -25 331 29 66 31
151 93 141 103 -3 3 -313 31 -358 33 -4 0 -32 -34 -63 -76z"/>
<path d="M3599 4896 c40 -43 118 -76 178 -76 59 0 103 16 148 53 l30 25 -100
6 c-55 4 -140 9 -190 12 l-90 6 24 -26z"/>
<path d="M8685 4910 c-60 -4 -126 -8 -145 -9 l-35 -2 30 -25 c45 -38 88 -54
148 -54 60 0 138 33 177 75 l23 25 -44 -2 c-24 -1 -93 -5 -154 -8z"/>
<path d="M3333 4852 c-95 -21 -173 -41 -174 -47 -3 -16 97 -71 175 -97 56 -18
93 -23 176 -23 58 0 117 3 133 8 l27 7 -73 92 c-40 50 -77 93 -82 94 -6 1 -87
-14 -182 -34z"/>
<path d="M8867 4797 c-63 -78 -72 -93 -58 -102 9 -5 68 -10 131 -10 94 0 128
4 186 23 73 24 176 80 178 96 1 8 -122 37 -336 80 -25 5 -35 -3 -101 -87z"/>
<path d="M4013 4775 c-125 -32 -162 -54 -115 -69 28 -9 162 -25 210 -26 37 0
43 3 38 18 -3 9 -10 36 -16 60 -6 23 -14 42 -18 42 -4 -1 -48 -12 -99 -25z"/>
<path d="M8330 4758 c-6 -24 -14 -52 -17 -62 -5 -18 0 -19 88 -12 97 7 165 19
177 31 13 12 -29 33 -106 53 -142 37 -130 38 -142 -10z"/>
<path d="M4254 4630 c-65 -14 -67 -16 -49 -50 32 -62 114 -88 165 -53 38 26
50 46 37 61 -27 33 -100 53 -153 42z"/>
<path d="M8140 4630 c-66 -12 -106 -44 -87 -70 39 -51 100 -63 154 -30 33 20
69 75 55 84 -21 12 -90 22 -122 16z"/>
<path d="M3642 4580 c-73 -15 -135 -30 -138 -33 -10 -10 72 -55 132 -73 72
-21 160 -15 232 16 28 12 52 26 52 29 0 11 -118 91 -132 90 -7 -1 -73 -13
-146 -29z"/>
<path d="M8600 4569 c-30 -22 -56 -44 -58 -48 -5 -15 103 -54 164 -59 40 -3
80 1 118 12 60 18 142 63 132 73 -5 5 -271 62 -291 62 -5 0 -35 -18 -65 -40z"/>
<path d="M3983 4411 c-84 -27 -113 -44 -99 -58 4 -5 76 -9 159 -11 l152 -2
-55 50 c-30 27 -59 49 -65 49 -5 0 -47 -12 -92 -28z"/>
<path d="M8320 4390 l-55 -50 152 2 c83 2 155 7 160 11 13 14 -27 36 -113 62
-44 14 -82 25 -85 25 -2 0 -29 -23 -59 -50z"/>
</g>
</svg>
