<?xml version="1.0" encoding="UTF-8" standalone="no"?>
<!DOCTYPE svg PUBLIC "-//W3C//DTD SVG 1.1//EN" "http://www.w3.org/Graphics/SVG/1.1/DTD/svg11.dtd">
<svg version="1.1" xmlns="http://www.w3.org/2000/svg" xmlns:xlink="http://www.w3.org/1999/xlink" preserveAspectRatio="xMidYMid meet" viewBox="0 0 640 640" width="640" height="640"><defs><path d="M9.73 236.36C12.43 242.23 15.79 246.13 22.14 251.11C34.97 261 50.74 267.71 68.72 270.95C72.5 271.61 75.67 272.09 75.79 271.97C75.91 271.79 71.06 253.08 69.68 248.53C69.38 247.57 68.9 247.45 65.9 247.81C61.59 248.29 51.93 247.27 46.06 245.65C39.47 243.85 30.29 239.12 24.66 234.62C16.75 228.27 10.21 219.57 6.07 209.92C5.98 209.69 5.5 208.53 4.64 206.44L4.88 214.84C5.83 224.27 7.45 231.44 9.73 236.36Z" id="c7yBf3GLg3"></path><path d="M623.79 226.47C616.77 234.98 604.66 242.77 593.99 245.65C588.12 247.27 578.46 248.29 574.15 247.81C571.15 247.45 570.67 247.57 570.37 248.53C568.99 253.08 564.14 271.79 564.26 271.97C564.68 272.39 578.16 269.69 583.5 268.19C600.47 263.28 618.69 252.78 625.88 243.73C631.34 236.84 634.7 226.89 635.18 216.04C635.6 207.04 635.36 205.79 634.04 209.56C632.48 213.82 627.74 221.73 623.79 226.47Z" id="aj6nRl5tE"></path><path d="M90.36 275.99C94.8 280.66 103.49 285.46 113.08 288.51C118.12 290.07 130.11 292.11 132.57 291.75C132.67 291.74 133.17 291.68 134.06 291.57C132.7 288.51 131.94 286.82 131.79 286.48C130.11 282.64 129.21 281.26 128.13 280.96C109.25 275.15 98.81 269.09 86.95 257.22C86.49 256.77 84.21 254.51 80.11 250.45L80.53 253.92C83.89 265.27 87.16 272.63 90.36 275.99Z" id="aVbfJVtIt"></path><path d="M511.92 280.96C510.84 281.26 509.94 282.64 508.26 286.48C508.11 286.82 507.35 288.51 505.99 291.57C506.89 291.68 507.39 291.74 507.49 291.75C509.94 292.11 521.93 290.07 526.97 288.51C536.56 285.46 545.25 280.66 549.69 275.99C554.49 270.95 558.56 261.84 559.52 253.92C559.7 252.07 559.82 250.51 559.7 250.57C559.58 250.57 556.58 253.62 552.93 257.34C541.42 269.03 530.87 275.09 511.92 280.96Z" id="b7X6C2vpyO"></path><path d="M31.01 284.74C41.92 292.89 56.79 297.87 70.34 297.87C74.84 297.87 82.45 297.03 82.99 296.49C83.23 296.31 78.67 282.34 78.25 281.92C78.13 281.8 73.7 280.6 68.42 279.28C50.74 274.85 30.53 267.23 15.67 259.5C15.22 259.26 12.98 258.08 8.95 255.96L10.39 259.26C18.78 272.17 25.66 280.66 31.01 284.74Z" id="b1hoxH5SUr"></path><path d="M571.63 279.28C566.35 280.6 561.92 281.8 561.8 281.92C561.38 282.34 556.82 296.31 557.06 296.49C557.6 297.03 565.22 297.87 569.71 297.87C583.26 297.87 598.13 292.89 609.04 284.74C617.07 278.62 625.88 267.77 629.66 259.2C630.5 257.4 631.1 255.9 630.98 255.96C630.92 255.96 628.16 257.46 624.86 259.2C611.14 266.63 589.38 274.85 571.63 279.28Z" id="dZB0niznd"></path><path d="M208.82 267.41C207.68 268.61 206.54 270.41 206.36 271.31C205.4 274.97 210.14 279.82 217.03 282.28C220.21 283.42 222.43 283.66 230.76 283.9C245.81 284.38 261.52 282.04 285.26 275.87C291.01 274.37 296.35 272.99 297.13 272.87C297.84 272.69 298.44 272.33 298.44 272.15C298.44 271.61 279.08 266.75 268.59 264.59C253 261.48 232.98 259.5 226.21 260.46C216.97 261.78 212.12 263.7 208.82 267.41Z" id="a3LTAMvXyv"></path><path d="M146.29 298.77C149.17 301.4 151.69 302.66 158.88 305C164.94 307.04 168.78 309.32 170.57 312.01C173.09 315.85 173.81 325.92 172.25 335.33C171.05 342.71 171.11 347.92 172.49 350.98C174.65 355.78 179.09 359.61 182.38 359.61C185.62 359.61 185.98 356.44 184.84 337.25C183.34 311.35 181.24 306.38 169.19 299.72C166.62 298.29 160.74 294.93 156.19 292.29C147.55 287.32 143.6 285.28 142.7 285.28C142.4 285.28 141.8 285.7 141.38 286.18C139.7 288.21 142.46 295.35 146.29 298.77Z" id="eDtd4oZRi"></path><path d="M304.44 317.83C302.34 320.17 301.5 320.65 298.56 321.25C292.81 322.45 282.86 325.98 276.62 329.16C252.16 341.39 235.44 361.17 228.06 386.65C226.57 391.99 226.45 391.93 225.37 385.75C224.35 380.18 224.59 375.02 226.27 365.01C228.24 353.26 228.3 345.83 226.57 340.37C223.03 329.4 212.18 319.63 196.65 313.51C196.46 313.44 195.5 313.06 193.77 312.37C194.96 316.55 195.62 318.86 195.75 319.33C199.05 330.72 199.59 335.75 199.77 355.12C199.89 369.09 200.13 373.46 200.97 377.3C202.53 384.49 205.82 393.9 208.64 399.36C211.76 405.29 217.63 411.77 221.71 413.69C224.47 415.01 225.31 416.09 225.31 418.48C225.31 419.32 224.83 419.56 223.09 419.56C218.77 419.62 212.72 423.52 212.72 426.28C212.72 426.94 213.38 427.66 214.4 428.02C216.49 428.85 222.19 428.37 224.59 427.12C226.45 426.16 226.51 426.16 226.51 427.3C226.51 428.91 229.2 438.03 231.3 443.42C236.22 456.25 246.77 470.4 258.22 479.63C296.71 510.68 352.04 508.65 387.77 474.95C400.3 463.14 409.95 446.36 413.55 430.17C413.97 428.31 414.38 426.76 414.38 426.76C414.44 426.76 415.52 427.18 416.84 427.66C421.4 429.27 427.33 428.49 427.33 426.28C427.33 423.58 421.34 419.62 417.32 419.56C415.82 419.56 415.34 419.32 415.34 418.48C415.34 416.09 416.18 414.95 418.7 413.63C422.66 411.53 428.47 404.99 431.41 399.36C434.23 393.9 437.53 384.49 439.08 377.3C439.92 373.46 440.16 369.09 440.28 355.12C440.46 335.75 441 330.72 444.3 319.33C444.43 318.86 445.09 316.55 446.28 312.37C444.55 313.06 443.59 313.44 443.4 313.51C427.87 319.63 417.02 329.4 413.49 340.37C411.75 345.83 411.81 353.26 413.79 365.01C415.46 375.14 415.7 380.6 414.56 386.59C414.52 386.85 414.28 388.15 413.85 390.49C412.62 386.71 411.94 384.61 411.81 384.19C400.9 349.6 371.58 325.56 333.39 319.75C330.22 319.27 327.28 316.15 324.7 310.7C322.12 305.24 321.4 299.9 322.54 294.39C322.6 294.1 322.88 292.66 323.38 290.07L316.43 290.07L309.41 290.07L310.19 293.19C310.15 305.3 308.24 313.51 304.44 317.83ZM397.96 410.27C397.96 446.18 369.9 477.23 332.49 482.75C307.14 486.52 281.84 478.43 264.03 460.69C235.62 432.45 235.62 388.09 264.03 359.85C281.84 342.17 307.14 334.02 332.49 337.79C369.9 343.31 397.96 374.36 397.96 410.27Z" id="bTVyK2ifB"></path><path d="M308.64 275.09L316.13 275.09L323.62 275.09C323.62 274.04 323.62 273.46 323.62 273.35C323.62 272.45 323.8 270.41 323.98 268.85C324.01 268.67 324.15 267.75 324.4 266.09L316.49 266.09L308.64 266.09L308.64 270.59L308.64 275.09Z" id="cxpsX6iNJ"></path><path d="M329.96 271.68C329.06 272.52 358.02 278.94 374.14 281.46C380.68 282.47 385.41 282.77 394.89 282.77C406.04 282.83 407.59 282.71 411.49 281.46C415.87 280.08 419.94 277.5 422.04 274.62C423.78 272.28 423 269.17 419.88 265.99C415.99 262.15 412.99 261.43 399.68 261.25C393.57 261.13 387.51 261.19 386.19 261.31C372.34 262.69 331.46 270.25 329.96 271.68Z" id="cEeim90dS"></path><path d="M102.23 301.22C108.35 305.66 115.42 308.42 124.29 309.86C126.63 310.28 134.3 311.95 141.38 313.57C154.45 316.63 159.36 317.29 159.78 316.09C160.62 313.69 144.32 303.5 133.88 299.96C132.27 299.42 126.81 297.93 121.9 296.67C110.92 293.91 106.55 292.23 97.68 287.26C89.28 282.58 88.02 282.16 88.02 284.2C88.02 287.5 95.4 296.37 102.23 301.22Z" id="bOcCK4TLs"></path><path d="M540.64 288.27C533.56 292.17 528.65 294.03 518.16 296.67C513.24 297.93 507.85 299.42 506.17 299.96C495.74 303.5 479.43 313.69 480.27 316.09C480.69 317.29 485.6 316.63 498.67 313.57C505.75 311.95 513.48 310.28 515.76 309.86C524.63 308.42 531.7 305.66 537.82 301.22C544.53 296.43 552.03 287.5 552.03 284.26C552.03 282.58 551.19 282.52 548.13 284.14C546.81 284.86 543.45 286.66 540.64 288.27Z" id="g1t1oE2oV"></path><path d="M483.87 292.35C479.31 294.93 473.43 298.29 470.86 299.72C458.81 306.38 456.71 311.35 455.21 337.25C454.07 356.44 454.43 359.61 457.67 359.61C460.97 359.61 465.4 355.78 467.56 350.98C468.94 347.92 469 342.71 467.8 335.33C466.24 325.92 466.96 315.85 469.48 312.01C471.28 309.32 475.11 307.04 481.17 305C488.36 302.66 490.88 301.4 493.76 298.77C497.59 295.35 500.35 288.21 498.67 286.18C497.71 285.04 497.11 285.1 494.36 286.42C493.1 287.08 488.42 289.71 483.87 292.35Z" id="blvkPop0w"></path><path d="M276.56 389.29C272.67 397.26 271.83 401.1 271.83 410.27C271.83 419.44 272.67 423.28 276.56 431.25C282.5 443.6 293.83 452.89 307.74 456.85C314.63 458.77 326.62 458.77 333.51 456.85C347.36 452.89 358.69 443.66 364.75 431.31C366.19 428.31 367.27 425.86 367.21 425.74C367.09 425.68 365.83 426.16 364.39 426.88C356.53 430.77 346.76 427.18 342.33 418.72C340.95 416.09 340.71 414.95 340.77 410.57C340.77 406.25 341.01 404.99 342.39 402.42C346.7 393.96 356.53 390.37 364.39 394.26C365.83 394.98 367.15 395.46 367.27 395.28C367.45 395.16 366.31 392.53 364.81 389.47C358.75 377 347.42 367.65 333.81 363.81C328.66 362.37 317.39 361.71 312.35 362.67C296.65 365.43 283.34 375.38 276.56 389.29Z" id="a5DHozfL6T"></path><path d="M44.14 307.64C50.26 311.71 58.83 315.67 65.66 317.47C70.7 318.79 72.92 319.03 80.83 319.09C85.93 319.09 91.14 318.91 92.4 318.67C92.55 318.64 93.29 318.48 94.62 318.19C91.92 314.63 90.42 312.65 90.12 312.25C86.17 306.98 85.39 306.26 83.35 305.96C68.36 303.38 51.7 299.19 37.79 294.57C32.45 292.77 27.9 291.27 27.72 291.27C27.54 291.27 28.02 292.17 28.73 293.19C31.19 296.67 39.71 304.7 44.14 307.64Z" id="a75AJFf7O"></path><path d="M561.68 305.06C557.9 305.72 554.72 306.26 554.66 306.26C554.55 306.26 552.45 308.96 549.93 312.25C549.63 312.65 548.13 314.63 545.43 318.19C546.76 318.48 547.5 318.64 547.65 318.67C548.91 318.91 554.13 319.09 559.22 319.09C567.13 319.03 569.35 318.79 574.39 317.47C581.22 315.67 589.79 311.71 595.91 307.64C602.38 303.26 614.37 291.09 611.86 291.33C611.44 291.39 606.52 293.01 600.95 294.87C590.15 298.59 572.83 303.02 561.68 305.06Z" id="bmjIXvuoS"></path><path d="M111.7 324.24C118.12 327.36 121.36 327.9 136.88 328.44C144.8 328.74 153.07 329.22 155.29 329.64C157.5 330 160.08 330.24 160.98 330.12C162.36 329.94 161.1 329.1 153.67 325.38C141.86 319.51 139.76 318.91 129.39 318.19C118.06 317.35 114.46 316.51 106.01 312.55C98.52 309.02 97.62 308.78 97.62 310.22C97.62 313.15 105.89 321.43 111.7 324.24Z" id="aD7toMEbO"></path><path d="M510.36 318.19C500.29 318.91 498.13 319.57 486.38 325.38C478.95 329.1 477.69 329.94 479.07 330.12C479.97 330.24 482.55 330 484.76 329.64C486.98 329.22 495.26 328.74 503.17 328.44C518.7 327.9 521.93 327.36 528.35 324.24C534.16 321.43 542.44 313.15 542.44 310.22C542.44 308.72 541.48 309.02 534.04 312.55C525.89 316.39 521.63 317.41 510.36 318.19Z" id="a4ghyWuy1E"></path><path d="M49.3 325.86C59.61 336.77 72.8 343.07 87.42 343.85C92.76 344.15 102.53 343.25 104.03 342.35C104.45 342.05 103.55 339.35 101.51 334.73C101.3 334.26 100.27 331.86 98.4 327.54C92.68 327.5 89.5 327.48 88.86 327.48C74.54 327.3 62.43 325.26 49.54 320.71C43.42 318.55 43.42 318.55 44.2 319.99C44.56 320.59 46.84 323.28 49.3 325.86Z" id="byRSn36xq"></path><path d="M551.19 327.48C550.55 327.48 547.38 327.5 541.66 327.54C539.79 331.86 538.75 334.26 538.54 334.73C536.5 339.35 535.6 342.05 536.02 342.35C537.52 343.25 547.29 344.15 552.63 343.85C567.25 343.07 580.44 336.77 590.75 325.86C595.61 320.71 596.93 318.79 595.67 318.91C595.25 318.97 592.73 319.81 590.09 320.77C578.16 325.14 565.46 327.3 551.19 327.48Z" id="aEr2xH3k9"></path><path d="M121.78 343.43C125.01 344.99 126.57 345.35 133.59 345.89C142.46 346.6 159.18 346.24 160.14 345.29C161.76 343.67 143.18 338.09 110.92 330.54C110.83 330.51 110.35 330.39 109.49 330.18L110.92 332.7C115.52 338.53 119.14 342.11 121.78 343.43Z" id="gxyA8SV5s"></path><path d="M479.91 345.29C480.87 346.24 497.77 346.6 506.47 345.89C516.3 345.11 520.25 343.49 524.87 338.39C527.75 335.21 530.93 330.24 530.03 330.24C529.79 330.3 521.21 332.4 510.96 334.97C486.86 341.09 478.53 343.91 479.91 345.29Z" id="aiodc5J5k"></path><path d="M84.25 361.35C93.84 366.15 106.07 366.27 116.08 361.71C116.3 361.61 117.37 361.11 119.32 360.21L116.02 355.6L112.72 350.92C106.43 350.49 102.93 350.25 102.23 350.2C90.72 349.48 78.79 348.04 72.32 346.72C70.04 346.24 68 345.83 67.82 345.83C67.64 345.83 68.06 346.66 68.66 347.68C72.32 353.38 77.71 358.11 84.25 361.35Z" id="d7jOvFRmi0"></path><path d="M537.82 350.2C537.12 350.25 533.62 350.49 527.33 350.92L524.03 355.6L520.73 360.21C522.68 361.11 523.76 361.61 523.97 361.71C533.98 366.27 546.21 366.15 555.8 361.35C562.34 358.11 567.73 353.38 571.39 347.68C572.71 345.59 572.65 345.59 567.31 346.72C561.62 347.98 549.15 349.48 537.82 350.2Z" id="a3K2iIjsUG"></path><path d="M126.03 359.85C131.43 363.93 134.84 364.47 146.47 362.91C150.13 362.43 154.57 362.01 156.37 362.01C162.72 361.95 163.8 360.93 160.44 358.05C156.07 354.4 154.09 353.92 142.28 353.86C132.63 353.8 131.13 353.68 127.89 352.48C122.73 350.5 121.12 350.08 120.76 350.5C119.38 351.82 122.31 357.04 126.03 359.85Z" id="a6Z6ZIUyI"></path><path d="M497.77 353.86C485.96 353.92 483.99 354.4 479.61 358.05C476.25 360.93 477.33 361.95 483.69 362.01C485.48 362.01 489.98 362.43 493.58 362.91C505.21 364.47 508.62 363.93 514.02 359.85C517.8 356.92 520.85 351.4 519.18 350.38C518.94 350.26 516.48 350.98 513.66 352C508.74 353.74 508.26 353.8 497.77 353.86Z" id="a5XAIQrRV"></path><path d="M173.81 370.16C176.33 379.94 182.56 389.89 189.82 395.94C193.41 398.88 202.17 403.98 203.67 403.98C204.02 403.98 202.95 402.3 201.27 400.2C196.29 394.08 191.26 386.17 187.42 378.32C187.18 377.83 185.96 375.37 183.76 370.94C181.21 369.47 179.79 368.65 179.51 368.49C177.17 367.11 174.65 365.61 173.93 365.13C173.15 364.65 172.55 364.53 172.55 364.83C172.55 365.13 173.09 367.53 173.81 370.16Z" id="a5Ddh5TopI"></path><path d="M456.29 371C454.09 375.39 452.88 377.83 452.63 378.32C448.8 386.17 443.76 394.08 438.78 400.2C437.11 402.3 436.03 403.98 436.39 403.98C437.88 403.98 446.64 398.88 450.23 395.94C457.61 389.83 463.72 379.88 466.3 369.92C467.02 367.17 467.5 364.83 467.38 364.71C467.32 364.59 464.74 365.97 461.74 367.77C461.02 368.2 459.2 369.28 456.29 371Z" id="a22k9PwuFq"></path><path d="M141.86 369.21C140 369.21 138.32 369.45 138.08 369.74C137.54 370.64 139.58 372.26 143.72 374.24C148.75 376.58 155.71 377.06 161.52 375.5C163.62 374.96 165.48 374.24 165.66 374C166.08 373.28 161.88 369.8 159.12 368.55C156.25 367.23 152.47 367.17 148.27 368.37C146.65 368.79 143.72 369.21 141.86 369.21Z" id="a5FAREIPC6"></path><path d="M474.39 374C474.57 374.24 476.43 374.96 478.53 375.5C484.35 377.06 491.3 376.58 496.33 374.24C500.47 372.26 502.51 370.64 501.97 369.74C501.73 369.45 500.05 369.21 498.19 369.21C496.33 369.21 493.28 368.79 491.48 368.31C487.1 367.11 483.93 367.23 480.93 368.55C478.17 369.8 473.97 373.28 474.39 374Z" id="e4JJVJrgwm"></path><path d="M111.16 380.72C117.52 383.65 125.97 383.71 132.81 380.9C132.94 380.84 133.62 380.54 134.84 380L131.19 375.2L127.53 370.4L113.44 370.4L99.35 370.4L100.55 372.08C105.03 376.64 108.57 379.52 111.16 380.72Z" id="d3tH2qqlAh"></path><path d="M505.21 380C506.43 380.54 507.11 380.84 507.25 380.9C514.08 383.71 522.53 383.65 528.89 380.72C532.78 378.92 537.28 375.26 539.5 372.08C539.58 371.97 539.98 371.41 540.7 370.4L526.61 370.4L512.52 370.4L508.86 375.2L505.21 380Z" id="a2RTuQJ7OH"></path><path d="M161.1 391.39C164.1 391.39 168.18 389.23 169.85 386.71C170.69 385.51 171.23 384.49 171.17 384.37C171.05 384.31 167.34 383.83 162.9 383.35C158.52 382.81 153.67 382.27 152.29 382.03C149.77 381.73 149.65 381.73 150.07 383.11C151.27 387.13 156.91 391.39 161.1 391.39Z" id="c3Pk2uDeu"></path><path d="M469.3 384.31C468.94 384.43 469.36 385.45 470.2 386.65C471.88 389.23 475.95 391.39 478.95 391.39C483.09 391.39 488.78 387.13 489.98 383.11C490.46 381.55 491.36 381.55 479.01 382.99C473.97 383.59 469.6 384.19 469.3 384.31Z" id="bprd9HUiE"></path><path d="M121.06 386.53C119.26 386.65 123.75 390.31 128.49 392.65C131.91 394.32 134.66 395.22 138.08 395.7C143.3 396.42 148.45 395.94 148.93 394.68C149.11 394.26 147.73 391.87 145.87 389.35C143.06 385.51 142.28 384.79 140.9 384.85C140 384.91 135.38 385.27 130.59 385.75C125.79 386.17 121.54 386.53 121.06 386.53Z" id="aa1pcmcQQM"></path><path d="M491.12 394.68C492.08 397.26 504.25 396.18 510.96 392.95C514.92 391.09 520.01 387.37 519.42 386.77C519.24 386.59 500.65 384.91 497.95 384.79C497.71 384.79 496.04 386.83 494.18 389.35C492.32 391.87 490.94 394.26 491.12 394.68Z" id="a2EgPyVpFg"></path><path d="M172.97 402.18C176.51 402.18 179.15 401.22 181.84 399C181.96 398.9 182.56 398.4 183.64 397.5C180.05 397.29 178.05 397.17 177.65 397.14C174.35 396.9 169.25 396.6 166.26 396.42C165.9 396.4 164.1 396.28 160.86 396.06L162.3 397.62C167.02 400.66 170.57 402.18 172.97 402.18Z" id="b1G2aScF1P"></path><path d="M458.51 397.32C458.37 397.33 457.67 397.37 456.41 397.44C457.49 398.34 458.09 398.84 458.21 398.94C460.91 401.22 463.48 402.18 467.08 402.18C470.68 402.18 475.35 400.2 477.69 397.68C477.78 397.58 478.24 397.08 479.07 396.18C477.49 396.25 476.61 396.29 476.43 396.3C474.99 396.36 470.86 396.6 467.2 396.78C463.6 397.02 459.65 397.26 458.51 397.32Z" id="btPfWJvPW"></path><path d="M135.92 403.08C135.74 404.04 141.74 407.33 146.41 408.89C149.77 409.97 151.99 410.27 156.97 410.27C160.44 410.27 163.98 410.09 164.94 409.79C165.05 409.76 165.59 409.62 166.56 409.37C163.93 406.06 162.47 404.22 162.18 403.86C159.78 400.86 157.56 398.28 157.26 398.22C156.91 398.16 152.05 399.06 146.35 400.26C140.66 401.52 135.98 402.72 135.92 403.08Z" id="c2s6S6l5vG"></path><path d="M474.63 409.67C475.17 409.97 478.71 410.27 482.49 410.27C488.12 410.27 490.16 410.03 493.64 408.89C498.01 407.45 504.19 404.1 504.31 403.14C504.37 402.66 496.99 400.92 484.17 398.34C482.67 398.04 482.07 398.52 478.11 403.56C474.33 408.23 473.79 409.13 474.63 409.67Z" id="aIU7BFJny"></path><path d="M180.23 409.01C181.9 409.55 189.94 410.51 192.81 410.57C195.03 410.57 195.39 410.39 195.09 409.49C194.91 408.95 194.49 407.33 194.13 405.89C193.77 404.52 193.29 403.38 193.05 403.38C192.81 403.44 190.18 404.1 187.12 404.87C179.63 406.79 177.41 408.11 180.23 409.01Z" id="c43Si8GKvr"></path><path d="M444.9 409.61C444.6 410.69 444.9 410.75 450.17 410.33C455.99 409.91 460.07 409.19 460.79 408.47C461.56 407.75 459.05 406.49 454.43 405.29C445.92 403.08 446.64 403.02 445.92 405.89C445.56 407.33 445.08 409.01 444.9 409.61Z" id="a9h2rHwY7v"></path><path d="M198.63 416.56C200.55 420.28 205.46 421.84 208.52 419.74C210.8 418.18 211.52 416.98 210.74 416.09C209.12 414.11 204.74 412.91 201.57 413.57C197.67 414.41 197.55 414.53 198.63 416.56Z" id="cjeg6utBN"></path><path d="M429.31 417.76C431.65 420.82 435.31 421.54 438.54 419.56C440.52 418.36 442.68 415.07 441.84 414.53C440.58 413.81 436.45 413.21 434.53 413.57C430.57 414.29 428.17 416.21 429.31 417.76Z" id="d6cAds7SKN"></path><path d="M156.61 418.54C156.01 419.14 160.92 421.84 164.52 422.92C168.83 424.18 174.11 423.82 178.43 421.96C180.11 421.24 181.54 420.4 181.54 420.22C181.54 419.56 174.47 414.77 173.63 414.83C173.21 414.89 169.25 415.61 164.88 416.56C160.5 417.46 156.79 418.36 156.61 418.54Z" id="c43I2DLRP"></path><path d="M458.63 420.1C458.33 421 464.8 423.34 468.46 423.64C470.86 423.82 473.25 423.58 475.53 422.92C479.13 421.84 484.05 419.14 483.45 418.54C483.15 418.24 467.2 414.83 466 414.83C465.7 414.83 463.9 415.91 462.1 417.22C460.31 418.54 458.75 419.86 458.63 420.1Z" id="b1psmBac8K"></path><path d="M179.39 430.17C179.63 430.47 183.94 430.71 188.92 430.83C189.53 430.84 192.56 430.88 198.03 430.95C196.05 429.15 194.95 428.15 194.73 427.96C192.93 426.34 191.2 425.02 190.84 425.02C190.54 425.02 188.02 425.74 185.32 426.7C180.29 428.31 178.55 429.33 179.39 430.17Z" id="bJt8OZzzu"></path><path d="M442.02 430.95C447.49 430.88 450.53 430.84 451.13 430.83C456.11 430.71 460.43 430.41 460.73 430.17C461.5 429.33 459.11 428.02 453.95 426.46C451.31 425.62 449.04 424.96 448.86 424.96C448.74 424.96 447.12 426.34 445.32 427.96C444.88 428.35 443.78 429.35 442.02 430.95Z" id="aN8gOst8V"></path></defs><g><g><g><use xlink:href="#c7yBf3GLg3" opacity="1" fill="#000000" fill-opacity="1"></use><g><use xlink:href="#c7yBf3GLg3" opacity="1" fill-opacity="0" stroke="#000000" stroke-width="1" stroke-opacity="0"></use></g></g><g><use xlink:href="#aj6nRl5tE" opacity="1" fill="#000000" fill-opacity="1"></use><g><use xlink:href="#aj6nRl5tE" opacity="1" fill-opacity="0" stroke="#000000" stroke-width="1" stroke-opacity="0"></use></g></g><g><use xlink:href="#aVbfJVtIt" opacity="1" fill="#000000" fill-opacity="1"></use><g><use xlink:href="#aVbfJVtIt" opacity="1" fill-opacity="0" stroke="#000000" stroke-width="1" stroke-opacity="0"></use></g></g><g><use xlink:href="#b7X6C2vpyO" opacity="1" fill="#000000" fill-opacity="1"></use><g><use xlink:href="#b7X6C2vpyO" opacity="1" fill-opacity="0" stroke="#000000" stroke-width="1" stroke-opacity="0"></use></g></g><g><use xlink:href="#b1hoxH5SUr" opacity="1" fill="#000000" fill-opacity="1"></use><g><use xlink:href="#b1hoxH5SUr" opacity="1" fill-opacity="0" stroke="#000000" stroke-width="1" stroke-opacity="0"></use></g></g><g><use xlink:href="#dZB0niznd" opacity="1" fill="#000000" fill-opacity="1"></use><g><use xlink:href="#dZB0niznd" opacity="1" fill-opacity="0" stroke="#000000" stroke-width="1" stroke-opacity="0"></use></g></g><g><use xlink:href="#a3LTAMvXyv" opacity="1" fill="#1b5295" fill-opacity="1"></use><g><use xlink:href="#a3LTAMvXyv" opacity="1" fill-opacity="0" stroke="#000000" stroke-width="1" stroke-opacity="0"></use></g></g><g><use xlink:href="#eDtd4oZRi" opacity="1" fill="#000000" fill-opacity="1"></use><g><use xlink:href="#eDtd4oZRi" opacity="1" fill-opacity="0" stroke="#000000" stroke-width="1" stroke-opacity="0"></use></g></g><g><use xlink:href="#bTVyK2ifB" opacity="1" fill="#0d5681" fill-opacity="1"></use><g><use xlink:href="#bTVyK2ifB" opacity="1" fill-opacity="0" stroke="#000000" stroke-width="1" stroke-opacity="0"></use></g></g><g><use xlink:href="#cxpsX6iNJ" opacity="1" fill="#1b5295" fill-opacity="1"></use><g><use xlink:href="#cxpsX6iNJ" opacity="1" fill-opacity="0" stroke="#000000" stroke-width="1" stroke-opacity="0"></use></g></g><g><use xlink:href="#cEeim90dS" opacity="1" fill="#1b5295" fill-opacity="1"></use><g><use xlink:href="#cEeim90dS" opacity="1" fill-opacity="0" stroke="#000000" stroke-width="1" stroke-opacity="0"></use></g></g><g><use xlink:href="#bOcCK4TLs" opacity="1" fill="#000000" fill-opacity="1"></use><g><use xlink:href="#bOcCK4TLs" opacity="1" fill-opacity="0" stroke="#000000" stroke-width="1" stroke-opacity="0"></use></g></g><g><use xlink:href="#g1t1oE2oV" opacity="1" fill="#000000" fill-opacity="1"></use><g><use xlink:href="#g1t1oE2oV" opacity="1" fill-opacity="0" stroke="#000000" stroke-width="1" stroke-opacity="0"></use></g></g><g><use xlink:href="#blvkPop0w" opacity="1" fill="#000000" fill-opacity="1"></use><g><use xlink:href="#blvkPop0w" opacity="1" fill-opacity="0" stroke="#000000" stroke-width="1" stroke-opacity="0"></use></g></g><g><use xlink:href="#a5DHozfL6T" opacity="1" fill="#000000" fill-opacity="1"></use><g><use xlink:href="#a5DHozfL6T" opacity="1" fill-opacity="0" stroke="#000000" stroke-width="1" stroke-opacity="0"></use></g></g><g><use xlink:href="#a75AJFf7O" opacity="1" fill="#000000" fill-opacity="1"></use><g><use xlink:href="#a75AJFf7O" opacity="1" fill-opacity="0" stroke="#000000" stroke-width="1" stroke-opacity="0"></use></g></g><g><use xlink:href="#bmjIXvuoS" opacity="1" fill="#000000" fill-opacity="1"></use><g><use xlink:href="#bmjIXvuoS" opacity="1" fill-opacity="0" stroke="#000000" stroke-width="1" stroke-opacity="0"></use></g></g><g><use xlink:href="#aD7toMEbO" opacity="1" fill="#000000" fill-opacity="1"></use><g><use xlink:href="#aD7toMEbO" opacity="1" fill-opacity="0" stroke="#000000" stroke-width="1" stroke-opacity="0"></use></g></g><g><use xlink:href="#a4ghyWuy1E" opacity="1" fill="#000000" fill-opacity="1"></use><g><use xlink:href="#a4ghyWuy1E" opacity="1" fill-opacity="0" stroke="#000000" stroke-width="1" stroke-opacity="0"></use></g></g><g><use xlink:href="#byRSn36xq" opacity="1" fill="#000000" fill-opacity="1"></use><g><use xlink:href="#byRSn36xq" opacity="1" fill-opacity="0" stroke="#000000" stroke-width="1" stroke-opacity="0"></use></g></g><g><use xlink:href="#aEr2xH3k9" opacity="1" fill="#000000" fill-opacity="1"></use><g><use xlink:href="#aEr2xH3k9" opacity="1" fill-opacity="0" stroke="#000000" stroke-width="1" stroke-opacity="0"></use></g></g><g><use xlink:href="#gxyA8SV5s" opacity="1" fill="#000000" fill-opacity="1"></use><g><use xlink:href="#gxyA8SV5s" opacity="1" fill-opacity="0" stroke="#000000" stroke-width="1" stroke-opacity="0"></use></g></g><g><use xlink:href="#aiodc5J5k" opacity="1" fill="#000000" fill-opacity="1"></use><g><use xlink:href="#aiodc5J5k" opacity="1" fill-opacity="0" stroke="#000000" stroke-width="1" stroke-opacity="0"></use></g></g><g><use xlink:href="#d7jOvFRmi0" opacity="1" fill="#000000" fill-opacity="1"></use><g><use xlink:href="#d7jOvFRmi0" opacity="1" fill-opacity="0" stroke="#000000" stroke-width="1" stroke-opacity="0"></use></g></g><g><use xlink:href="#a3K2iIjsUG" opacity="1" fill="#000000" fill-opacity="1"></use><g><use xlink:href="#a3K2iIjsUG" opacity="1" fill-opacity="0" stroke="#000000" stroke-width="1" stroke-opacity="0"></use></g></g><g><use xlink:href="#a6Z6ZIUyI" opacity="1" fill="#000000" fill-opacity="1"></use><g><use xlink:href="#a6Z6ZIUyI" opacity="1" fill-opacity="0" stroke="#000000" stroke-width="1" stroke-opacity="0"></use></g></g><g><use xlink:href="#a5XAIQrRV" opacity="1" fill="#000000" fill-opacity="1"></use><g><use xlink:href="#a5XAIQrRV" opacity="1" fill-opacity="0" stroke="#000000" stroke-width="1" stroke-opacity="0"></use></g></g><g><use xlink:href="#a5Ddh5TopI" opacity="1" fill="#000000" fill-opacity="1"></use><g><use xlink:href="#a5Ddh5TopI" opacity="1" fill-opacity="0" stroke="#000000" stroke-width="1" stroke-opacity="0"></use></g></g><g><use xlink:href="#a22k9PwuFq" opacity="1" fill="#000000" fill-opacity="1"></use><g><use xlink:href="#a22k9PwuFq" opacity="1" fill-opacity="0" stroke="#000000" stroke-width="1" stroke-opacity="0"></use></g></g><g><use xlink:href="#a5FAREIPC6" opacity="1" fill="#000000" fill-opacity="1"></use><g><use xlink:href="#a5FAREIPC6" opacity="1" fill-opacity="0" stroke="#000000" stroke-width="1" stroke-opacity="0"></use></g></g><g><use xlink:href="#e4JJVJrgwm" opacity="1" fill="#000000" fill-opacity="1"></use><g><use xlink:href="#e4JJVJrgwm" opacity="1" fill-opacity="0" stroke="#000000" stroke-width="1" stroke-opacity="0"></use></g></g><g><use xlink:href="#d3tH2qqlAh" opacity="1" fill="#000000" fill-opacity="1"></use><g><use xlink:href="#d3tH2qqlAh" opacity="1" fill-opacity="0" stroke="#000000" stroke-width="1" stroke-opacity="0"></use></g></g><g><use xlink:href="#a2RTuQJ7OH" opacity="1" fill="#000000" fill-opacity="1"></use><g><use xlink:href="#a2RTuQJ7OH" opacity="1" fill-opacity="0" stroke="#000000" stroke-width="1" stroke-opacity="0"></use></g></g><g><use xlink:href="#c3Pk2uDeu" opacity="1" fill="#000000" fill-opacity="1"></use><g><use xlink:href="#c3Pk2uDeu" opacity="1" fill-opacity="0" stroke="#000000" stroke-width="1" stroke-opacity="0"></use></g></g><g><use xlink:href="#bprd9HUiE" opacity="1" fill="#000000" fill-opacity="1"></use><g><use xlink:href="#bprd9HUiE" opacity="1" fill-opacity="0" stroke="#000000" stroke-width="1" stroke-opacity="0"></use></g></g><g><use xlink:href="#aa1pcmcQQM" opacity="1" fill="#000000" fill-opacity="1"></use><g><use xlink:href="#aa1pcmcQQM" opacity="1" fill-opacity="0" stroke="#000000" stroke-width="1" stroke-opacity="0"></use></g></g><g><use xlink:href="#a2EgPyVpFg" opacity="1" fill="#000000" fill-opacity="1"></use><g><use xlink:href="#a2EgPyVpFg" opacity="1" fill-opacity="0" stroke="#000000" stroke-width="1" stroke-opacity="0"></use></g></g><g><use xlink:href="#b1G2aScF1P" opacity="1" fill="#000000" fill-opacity="1"></use><g><use xlink:href="#b1G2aScF1P" opacity="1" fill-opacity="0" stroke="#000000" stroke-width="1" stroke-opacity="0"></use></g></g><g><use xlink:href="#btPfWJvPW" opacity="1" fill="#000000" fill-opacity="1"></use><g><use xlink:href="#btPfWJvPW" opacity="1" fill-opacity="0" stroke="#000000" stroke-width="1" stroke-opacity="0"></use></g></g><g><use xlink:href="#c2s6S6l5vG" opacity="1" fill="#000000" fill-opacity="1"></use><g><use xlink:href="#c2s6S6l5vG" opacity="1" fill-opacity="0" stroke="#000000" stroke-width="1" stroke-opacity="0"></use></g></g><g><use xlink:href="#aIU7BFJny" opacity="1" fill="#000000" fill-opacity="1"></use><g><use xlink:href="#aIU7BFJny" opacity="1" fill-opacity="0" stroke="#000000" stroke-width="1" stroke-opacity="0"></use></g></g><g><use xlink:href="#c43Si8GKvr" opacity="1" fill="#000000" fill-opacity="1"></use><g><use xlink:href="#c43Si8GKvr" opacity="1" fill-opacity="0" stroke="#000000" stroke-width="1" stroke-opacity="0"></use></g></g><g><use xlink:href="#a9h2rHwY7v" opacity="1" fill="#000000" fill-opacity="1"></use><g><use xlink:href="#a9h2rHwY7v" opacity="1" fill-opacity="0" stroke="#000000" stroke-width="1" stroke-opacity="0"></use></g></g><g><use xlink:href="#cjeg6utBN" opacity="1" fill="#000000" fill-opacity="1"></use><g><use xlink:href="#cjeg6utBN" opacity="1" fill-opacity="0" stroke="#000000" stroke-width="1" stroke-opacity="0"></use></g></g><g><use xlink:href="#d6cAds7SKN" opacity="1" fill="#000000" fill-opacity="1"></use><g><use xlink:href="#d6cAds7SKN" opacity="1" fill-opacity="0" stroke="#000000" stroke-width="1" stroke-opacity="0"></use></g></g><g><use xlink:href="#c43I2DLRP" opacity="1" fill="#000000" fill-opacity="1"></use><g><use xlink:href="#c43I2DLRP" opacity="1" fill-opacity="0" stroke="#000000" stroke-width="1" stroke-opacity="0"></use></g></g><g><use xlink:href="#b1psmBac8K" opacity="1" fill="#000000" fill-opacity="1"></use><g><use xlink:href="#b1psmBac8K" opacity="1" fill-opacity="0" stroke="#000000" stroke-width="1" stroke-opacity="0"></use></g></g><g><use xlink:href="#bJt8OZzzu" opacity="1" fill="#000000" fill-opacity="1"></use><g><use xlink:href="#bJt8OZzzu" opacity="1" fill-opacity="0" stroke="#000000" stroke-width="1" stroke-opacity="0"></use></g></g><g><use xlink:href="#aN8gOst8V" opacity="1" fill="#000000" fill-opacity="1"></use><g><use xlink:href="#aN8gOst8V" opacity="1" fill-opacity="0" stroke="#000000" stroke-width="1" stroke-opacity="0"></use></g></g></g></g></svg>